<svg xmlns="http://www.w3.org/2000/svg" version="1.1" xmlns:xlink="http://www.w3.org/1999/xlink" xmlns:svgjs="http://svgjs.dev/svgjs" width="2000" height="608" viewBox="0 0 2000 608"><g transform="matrix(1,0,0,1,-0.8405971258713407,-0.04211323009832313)"><svg viewBox="0 0 411 125" data-background-color="#ffffff" preserveAspectRatio="xMidYMid meet" height="608" width="2000" xmlns="http://www.w3.org/2000/svg" xmlns:xlink="http://www.w3.org/1999/xlink"><g id="tight-bounds" transform="matrix(1,0,0,1,0.17274270936655967,0.008658147635344449)"><svg viewBox="0 0 395.52 109.84816912346238" height="109.84816912346238" width="395.52"><g><svg viewBox="0 0 586.1062725050076 162.7798871016692" height="109.84816912346238" width="395.52"><g transform="matrix(1,0,0,1,0,22.497075569044014)"><svg viewBox="0 0 395.52 117.78573596358117" height="117.78573596358117" width="395.52"><g id="textblocktransform"><svg viewBox="0 0 395.52 117.78573596358117" height="117.78573596358117" width="395.52" id="textblock"><g><svg viewBox="0 0 395.52 117.78573596358117" height="117.78573596358117" width="395.52"><g transform="matrix(1,0,0,1,0,0)"><svg width="395.52" viewBox="3.25 -38.7 131.79 39.25" height="117.78573596358117" data-palette-color="#336a86"><path d="M12.2-34.85L18.5-15.6 19-15.6 26.3-34.6 33.2-34.4 33.4-12.9 34.35 0 27.6 0 27.85-13 27.3-26.15 21.3-9.6 15.15-9.3 9.55-26.15 9.1-13 9.45 0 3.25 0 3.95-12.15 4.25-33.6 12.2-34.85ZM49.25-5.1L49.25-5.1Q50.7-5.1 52.3-5.85 53.9-6.6 54.8-7.35L54.8-7.35 55.7-8.1 58-5.3Q57.5-4.45 56.45-3.35 55.4-2.25 54.32-1.48 53.25-0.7 51.47-0.08 49.7 0.55 47.8 0.55L47.8 0.55Q43.75 0.55 41.2-2.53 38.65-5.6 38.65-10.45L38.65-10.45Q38.65-16.55 42.2-21.15 45.75-25.75 50.5-25.75L50.5-25.75Q54.15-25.75 56.17-23.7 58.2-21.65 58.2-17.95L58.2-17.95Q58.2-15.75 57.45-12.95L57.45-12.95 56.45-11.9 43.95-10.75Q44.8-5.1 49.25-5.1ZM49.25-20.6L49.25-20.6Q47.05-20.6 45.55-18.82 44.05-17.05 43.8-14.3L43.8-14.3 52.3-15.35Q52.45-16.5 52.45-17.25L52.45-17.25Q52.45-20.6 49.25-20.6ZM62-24.15L62-24.15 68.05-25.45Q68.5-21.6 68.65-18.15L68.65-18.15Q73.2-25.2 77.2-25.2L77.2-25.2 76.65-17.4Q73.75-17.4 72.07-16.88 70.4-16.35 68.65-14.8L68.65-14.8 68.65-13 69.2-1.25 62.5 0 63.1-12.15Q62.9-18.85 62-24.15ZM101.64-3.3L95.94 0.5 86.54-13.35 86.54-13 87.09-1.25 80.34 0 80.94-12.15 80.34-37.45 87.19-38.7 86.54-14.55 96.54-25.5 101.24-22.3 92.49-14.1 101.64-3.3ZM104.44-37.45L111.29-38.7 110.64-13 111.19-1.25 104.44 0 105.04-12.15 104.44-37.45ZM126.09-5.1L126.09-5.1Q127.54-5.1 129.14-5.85 130.74-6.6 131.64-7.35L131.64-7.35 132.54-8.1 134.84-5.3Q134.34-4.45 133.29-3.35 132.24-2.25 131.16-1.48 130.09-0.7 128.31-0.08 126.54 0.55 124.64 0.55L124.64 0.55Q120.59 0.55 118.04-2.53 115.49-5.6 115.49-10.45L115.49-10.45Q115.49-16.55 119.04-21.15 122.59-25.75 127.34-25.75L127.34-25.75Q130.99-25.75 133.01-23.7 135.04-21.65 135.04-17.95L135.04-17.95Q135.04-15.75 134.29-12.95L134.29-12.95 133.29-11.9 120.79-10.75Q121.64-5.1 126.09-5.1ZM126.09-20.6L126.09-20.6Q123.89-20.6 122.39-18.82 120.89-17.05 120.64-14.3L120.64-14.3 129.14-15.35Q129.29-16.5 129.29-17.25L129.29-17.25Q129.29-20.6 126.09-20.6Z" opacity="1" transform="matrix(1,0,0,1,0,0)" fill="#000000" class="wordmark-text-0" data-fill-palette-color="primary" id="text-0"></path></svg></g></svg></g></svg></g></svg></g><g transform="matrix(1,0,0,1,423.32638540333835,0)"><svg viewBox="0 0 162.7798871016692 162.7798871016692" height="162.7798871016692" width="162.7798871016692"><g><svg xmlns="http://www.w3.org/2000/svg" xmlns:xlink="http://www.w3.org/1999/xlink" xml:space="preserve" style="shape-rendering:geometricPrecision;text-rendering:geometricPrecision;image-rendering:optimizeQuality;" viewBox="0 0 6 6" x="0" y="0" fill-rule="evenodd" clip-rule="evenodd" id="icon-0" width="162.7798871016692" height="162.7798871016692" class="icon-icon-0" data-fill-palette-color="accent"><g fill="#283132" data-fill-palette-color="accent"><g fill="#283132" data-fill-palette-color="accent"><path class="" d="M3.811 1.105C4.104 1.105 4.37 1.159 4.563 1.247 4.77 1.341 4.897 1.476 4.897 1.63 4.897 1.78 4.769 1.916 4.563 2.01A1.9 1.9 0 0 1 3.811 2.153C3.64 2.153 3.477 2.134 3.333 2.1A0.4 0.4 0 0 0 3.29 1.98C3.441 2.022 3.62 2.046 3.811 2.046 4.09 2.046 4.34 1.996 4.52 1.913 4.687 1.837 4.79 1.736 4.79 1.63 4.79 1.52 4.687 1.42 4.52 1.344A1.8 1.8 0 0 0 3.811 1.211C3.534 1.211 3.283 1.262 3.103 1.344 2.936 1.421 2.833 1.521 2.833 1.63V1.642L2.727 1.606C2.739 1.462 2.864 1.336 3.059 1.247 3.253 1.16 3.52 1.105 3.811 1.105" fill="#000000" fill-rule="nonzero" data-fill-palette-color="accent"></path><path class="" d="M3.804 1.898V1.845A1 1 0 0 1 3.66 1.827 0.3 0.3 0 0 1 3.565 1.785 0.1 0.1 0 0 1 3.518 1.715L3.637 1.704C3.646 1.732 3.662 1.754 3.685 1.767 3.718 1.787 3.758 1.798 3.804 1.8V1.629A1 1 0 0 1 3.655 1.603 0.2 0.2 0 0 1 3.57 1.563 0.07 0.07 0 0 1 3.539 1.507C3.539 1.468 3.569 1.437 3.627 1.414A0.6 0.6 0 0 1 3.804 1.384V1.36H3.873V1.385A0.5 0.5 0 0 1 4.035 1.412C4.087 1.432 4.118 1.458 4.128 1.492L4.007 1.5A0.08 0.08 0 0 0 3.963 1.452 0.3 0.3 0 0 0 3.873 1.43V1.584C3.932 1.591 3.97 1.596 3.99 1.6A0.4 0.4 0 0 1 4.08 1.627 0.2 0.2 0 0 1 4.133 1.664 0.07 0.07 0 0 1 4.152 1.711C4.152 1.75 4.126 1.78 4.074 1.804A0.5 0.5 0 0 1 3.873 1.844V1.898zM3.804 1.43A0.3 0.3 0 0 0 3.696 1.454C3.669 1.468 3.656 1.484 3.656 1.502S3.667 1.536 3.69 1.548C3.712 1.56 3.75 1.57 3.804 1.578zM3.873 1.8A0.3 0.3 0 0 0 3.986 1.773C4.016 1.757 4.031 1.738 4.031 1.715 4.03 1.695 4.02 1.68 3.999 1.668A0.4 0.4 0 0 0 3.873 1.636z" fill="#000000" fill-rule="nonzero" data-fill-palette-color="accent"></path><path class="" d="M4.834 1.746A0.3 0.3 0 0 1 4.881 1.832 0.3 0.3 0 0 1 4.897 1.925C4.897 2.078 4.769 2.212 4.563 2.306 4.37 2.395 4.103 2.45 3.811 2.45 3.636 2.45 3.471 2.43 3.324 2.395A0.4 0.4 0 0 0 3.303 2.337L3.323 2.285C3.467 2.322 3.633 2.343 3.81 2.343 4.09 2.343 4.34 2.292 4.52 2.21 4.687 2.133 4.79 2.032 4.79 1.925A0.2 0.2 0 0 0 4.78 1.868 0.2 0.2 0 0 0 4.748 1.808z" fill="#000000" fill-rule="nonzero" data-fill-palette-color="accent"></path><path class="" d="M4.834 2.042A0.3 0.3 0 0 1 4.881 2.13C4.89 2.159 4.897 2.19 4.897 2.222 4.897 2.327 4.836 2.424 4.73 2.505 4.651 2.506 4.57 2.511 4.488 2.52L4.519 2.506C4.687 2.43 4.79 2.33 4.79 2.222A0.2 0.2 0 0 0 4.78 2.164 0.2 0.2 0 0 0 4.748 2.104zM3.764 2.745A2 2 0 0 1 3.311 2.69L3.302 2.668A0.4 0.4 0 0 0 3.332 2.584 2 2 0 0 0 3.996 2.632 1.5 1.5 0 0 0 3.764 2.745" fill="#000000" fill-rule="nonzero" data-fill-palette-color="accent"></path><path class="" d="M4.834 2.339C4.854 2.366 4.87 2.395 4.881 2.425A0.3 0.3 0 0 1 4.897 2.508L4.79 2.505A0.2 0.2 0 0 0 4.78 2.46 0.2 0.2 0 0 0 4.748 2.4zM3.514 3.023A2 2 0 0 1 3.308 2.984 0.4 0.4 0 0 0 3.337 2.882C3.409 2.899 3.487 2.913 3.568 2.922A0.5 0.5 0 0 0 3.513 3.022" fill="#000000" fill-rule="nonzero" data-fill-palette-color="accent"></path><path class="" d="M3.52 3.32A2 2 0 0 1 3.32 3.284 0.4 0.4 0 0 0 3.34 3.179C3.386 3.191 3.436 3.2 3.49 3.209A0.4 0.4 0 0 0 3.52 3.32" fill="#000000" fill-rule="nonzero" data-fill-palette-color="accent"></path><g fill="#283132" data-fill-palette-color="accent"><path class="" d="M2.057 1.594C2.38 1.594 2.677 1.654 2.892 1.752 3.119 1.856 3.26 2.004 3.26 2.172S3.12 2.487 2.892 2.59C2.677 2.689 2.382 2.75 2.057 2.75S1.437 2.689 1.22 2.59C0.994 2.488 0.853 2.34 0.853 2.173S0.994 1.856 1.221 1.752C1.436 1.654 1.731 1.594 2.057 1.594M2.847 1.849A2 2 0 0 0 2.058 1.701 1.95 1.95 0 0 0 1.266 1.849C1.076 1.935 0.96 2.05 0.96 2.172S1.077 2.408 1.266 2.494C1.466 2.586 1.746 2.643 2.056 2.643S2.647 2.586 2.849 2.494C3.036 2.408 3.153 2.294 3.153 2.172S3.036 1.935 2.848 1.849" fill="#000000" fill-rule="nonzero" data-fill-palette-color="accent"></path><path class="" d="M2.048 2.472V2.412A1 1 0 0 1 1.888 2.392 0.3 0.3 0 0 1 1.782 2.346 0.12 0.12 0 0 1 1.73 2.267L1.862 2.256A0.12 0.12 0 0 0 1.916 2.326C1.953 2.349 1.996 2.36 2.048 2.363V2.172A1 1 0 0 1 1.883 2.143 0.24 0.24 0 0 1 1.787 2.1C1.764 2.081 1.753 2.06 1.753 2.035 1.753 1.993 1.786 1.96 1.852 1.932A0.6 0.6 0 0 1 2.048 1.9V1.87H2.125V1.9A0.6 0.6 0 0 1 2.306 1.93C2.363 1.952 2.398 1.982 2.41 2.02L2.274 2.028A0.1 0.1 0 0 0 2.226 1.975 0.3 0.3 0 0 0 2.126 1.95V2.122C2.19 2.13 2.234 2.136 2.255 2.14A0.5 0.5 0 0 1 2.356 2.17 0.2 0.2 0 0 1 2.415 2.21C2.429 2.228 2.435 2.245 2.435 2.264 2.436 2.305 2.408 2.34 2.35 2.367A0.55 0.55 0 0 1 2.125 2.412V2.472zM2.048 1.95A0.3 0.3 0 0 0 1.928 1.977C1.898 1.992 1.884 2.01 1.884 2.031S1.896 2.068 1.92 2.08A0.4 0.4 0 0 0 2.048 2.116zM2.125 2.362A0.3 0.3 0 0 0 2.251 2.332C2.285 2.315 2.301 2.293 2.301 2.268 2.301 2.246 2.29 2.228 2.266 2.216A0.5 0.5 0 0 0 2.126 2.18z" fill="#000000" fill-rule="nonzero" data-fill-palette-color="accent"></path><path class="" d="M3.191 2.306A0.4 0.4 0 0 1 3.242 2.4 0.3 0.3 0 0 1 3.26 2.502C3.26 2.67 3.12 2.817 2.892 2.922 2.677 3.018 2.382 3.08 2.057 3.08S1.437 3.02 1.22 2.92C0.994 2.817 0.853 2.67 0.853 2.502 0.853 2.467 0.86 2.434 0.871 2.4A0.4 0.4 0 0 1 0.921 2.306L1.009 2.368A0.3 0.3 0 0 0 0.971 2.436 0.2 0.2 0 0 0 0.96 2.502C0.96 2.624 1.077 2.738 1.266 2.824 1.466 2.916 1.746 2.974 2.056 2.974S2.647 2.915 2.849 2.823C3.036 2.738 3.153 2.624 3.153 2.502A0.2 0.2 0 0 0 3.142 2.436 0.3 0.3 0 0 0 3.105 2.368z" fill="#000000" fill-rule="nonzero" data-fill-palette-color="accent"></path><path class="" d="M3.191 2.636A0.4 0.4 0 0 1 3.242 2.73 0.3 0.3 0 0 1 3.26 2.832C3.26 3 3.12 3.148 2.892 3.252 2.677 3.348 2.382 3.41 2.057 3.41S1.437 3.35 1.22 3.251C0.994 3.148 0.853 3 0.853 2.832A0.3 0.3 0 0 1 0.871 2.731 0.4 0.4 0 0 1 0.921 2.636L1.009 2.698A0.3 0.3 0 0 0 0.971 2.766 0.2 0.2 0 0 0 0.96 2.832C0.96 2.954 1.077 3.07 1.266 3.155 1.466 3.247 1.746 3.303 2.056 3.303S2.647 3.247 2.849 3.155C3.036 3.069 3.153 2.955 3.153 2.832A0.2 0.2 0 0 0 3.142 2.766 0.3 0.3 0 0 0 3.105 2.698z" fill="#000000" fill-rule="nonzero" data-fill-palette-color="accent"></path><path class="" d="M3.191 2.966A0.4 0.4 0 0 1 3.242 3.061 0.3 0.3 0 0 1 3.26 3.163C3.26 3.33 3.12 3.478 2.892 3.582 2.677 3.68 2.382 3.74 2.057 3.74S1.437 3.68 1.22 3.582C0.994 3.478 0.853 3.33 0.853 3.162A0.3 0.3 0 0 1 0.871 3.062 0.4 0.4 0 0 1 0.921 2.966L1.009 3.03A0.3 0.3 0 0 0 0.971 3.096 0.2 0.2 0 0 0 0.96 3.163C0.96 3.285 1.077 3.399 1.266 3.485 1.466 3.577 1.746 3.634 2.056 3.634S2.647 3.577 2.849 3.485C3.036 3.4 3.153 3.285 3.153 3.163A0.2 0.2 0 0 0 3.142 3.096 0.3 0.3 0 0 0 3.105 3.03z" fill="#000000" fill-rule="nonzero" data-fill-palette-color="accent"></path><path class="" d="M3.191 3.297C3.213 3.327 3.231 3.359 3.242 3.39A0.3 0.3 0 0 1 3.26 3.493C3.26 3.66 3.12 3.808 2.892 3.913 2.677 4.01 2.382 4.07 2.057 4.07S1.437 4.01 1.22 3.912C0.994 3.808 0.853 3.66 0.853 3.492 0.853 3.459 0.86 3.426 0.871 3.393A0.4 0.4 0 0 1 0.921 3.296L1.009 3.359A0.3 0.3 0 0 0 0.971 3.427 0.2 0.2 0 0 0 0.96 3.493C0.96 3.615 1.077 3.729 1.266 3.815 1.466 3.907 1.746 3.964 2.056 3.964S2.647 3.907 2.849 3.815C3.036 3.73 3.153 3.615 3.153 3.493A0.2 0.2 0 0 0 3.142 3.427 0.3 0.3 0 0 0 3.105 3.359z" fill="#000000" fill-rule="nonzero" data-fill-palette-color="accent"></path><path class="" d="M3.191 3.627A0.4 0.4 0 0 1 3.242 3.722 0.3 0.3 0 0 1 3.26 3.823C3.26 3.991 3.12 4.14 2.892 4.243 2.677 4.34 2.382 4.4 2.057 4.4S1.437 4.341 1.22 4.242C0.994 4.14 0.853 3.991 0.853 3.823 0.853 3.79 0.86 3.755 0.871 3.722A0.4 0.4 0 0 1 0.921 3.627L1.009 3.689A0.3 0.3 0 0 0 0.971 3.757 0.2 0.2 0 0 0 0.96 3.823C0.96 3.945 1.077 4.06 1.266 4.146 1.466 4.238 1.746 4.294 2.056 4.294S2.647 4.238 2.849 4.146C3.036 4.06 3.153 3.946 3.153 3.823A0.2 0.2 0 0 0 3.142 3.757 0.3 0.3 0 0 0 3.105 3.69z" fill="#000000" fill-rule="nonzero" data-fill-palette-color="accent"></path><path class="" d="M3.191 3.957C3.213 3.987 3.231 4.02 3.242 4.052A0.3 0.3 0 0 1 3.26 4.153C3.26 4.321 3.12 4.47 2.892 4.573 2.677 4.67 2.382 4.73 2.057 4.73S1.437 4.671 1.22 4.573C0.994 4.469 0.853 4.32 0.853 4.153 0.853 4.12 0.86 4.085 0.871 4.052A0.4 0.4 0 0 1 0.921 3.957L1.009 4.02A0.3 0.3 0 0 0 0.971 4.087 0.2 0.2 0 0 0 0.96 4.153C0.96 4.276 1.077 4.39 1.266 4.476 1.466 4.568 1.746 4.625 2.056 4.625S2.647 4.568 2.849 4.476C3.036 4.39 3.153 4.276 3.153 4.153A0.2 0.2 0 0 0 3.142 4.087 0.3 0.3 0 0 0 3.105 4.02z" fill="#000000" fill-rule="nonzero" data-fill-palette-color="accent"></path><path class="" d="M3.191 4.287C3.213 4.317 3.231 4.35 3.242 4.382A0.3 0.3 0 0 1 3.26 4.484C3.26 4.65 3.12 4.799 2.892 4.903 2.677 5 2.382 5.062 2.057 5.062S1.437 5 1.22 4.902C0.994 4.8 0.853 4.653 0.853 4.485 0.853 4.449 0.86 4.415 0.871 4.382A0.4 0.4 0 0 1 0.921 4.287L1.009 4.35A0.3 0.3 0 0 0 0.971 4.418 0.2 0.2 0 0 0 0.96 4.484C0.96 4.606 1.077 4.72 1.266 4.806 1.466 4.898 1.746 4.955 2.056 4.955S2.647 4.898 2.849 4.806C3.036 4.72 3.153 4.606 3.153 4.484A0.2 0.2 0 0 0 3.142 4.418 0.3 0.3 0 0 0 3.105 4.35z" fill="#000000" fill-rule="nonzero" data-fill-palette-color="accent"></path><path class="" d="M3.191 4.618A0.4 0.4 0 0 1 3.242 4.713 0.3 0.3 0 0 1 3.26 4.814C3.26 4.982 3.12 5.129 2.892 5.234 2.677 5.33 2.382 5.391 2.057 5.391S1.437 5.332 1.22 5.233C0.994 5.13 0.853 4.982 0.853 4.814A0.3 0.3 0 0 1 0.871 4.713 0.4 0.4 0 0 1 0.921 4.618L1.009 4.68A0.3 0.3 0 0 0 0.971 4.748 0.2 0.2 0 0 0 0.96 4.814C0.96 4.936 1.077 5.05 1.266 5.137 1.466 5.228 1.746 5.285 2.056 5.285S2.647 5.228 2.849 5.137C3.036 5.05 3.153 4.937 3.153 4.814A0.2 0.2 0 0 0 3.142 4.748 0.3 0.3 0 0 0 3.105 4.68z" fill="#000000" fill-rule="nonzero" data-fill-palette-color="accent"></path><path class="" d="M3.191 4.948A0.4 0.4 0 0 1 3.242 5.043 0.3 0.3 0 0 1 3.26 5.144C3.26 5.312 3.12 5.46 2.892 5.564 2.677 5.662 2.382 5.722 2.057 5.722S1.437 5.662 1.22 5.564C0.994 5.46 0.853 5.312 0.853 5.144A0.3 0.3 0 0 1 0.871 5.043 0.4 0.4 0 0 1 0.921 4.948L1.009 5.01A0.3 0.3 0 0 0 0.971 5.078 0.2 0.2 0 0 0 0.96 5.144C0.96 5.266 1.077 5.381 1.266 5.467 1.466 5.559 1.746 5.615 2.056 5.615S2.647 5.56 2.849 5.467C3.036 5.38 3.153 5.267 3.153 5.144A0.2 0.2 0 0 0 3.142 5.078 0.3 0.3 0 0 0 3.105 5.01z" fill="#000000" fill-rule="nonzero" data-fill-palette-color="accent"></path></g><g fill="#283132" data-fill-palette-color="accent"><path class="" d="M4.77 2.585C5.095 2.585 5.39 2.645 5.605 2.743 5.833 2.847 5.973 2.995 5.973 3.163S5.833 3.478 5.605 3.582C5.39 3.68 5.095 3.74 4.77 3.74S4.15 3.68 3.935 3.582C3.708 3.478 3.567 3.33 3.567 3.162S3.707 2.848 3.935 2.744C4.15 2.645 4.445 2.585 4.77 2.585M5.561 2.84A2 2 0 0 0 4.771 2.691 2 2 0 0 0 3.978 2.84C3.79 2.926 3.674 3.04 3.674 3.163 3.674 3.285 3.79 3.399 3.979 3.485 4.18 3.577 4.46 3.634 4.77 3.634S5.36 3.577 5.561 3.485C5.75 3.4 5.867 3.285 5.867 3.163 5.867 3.04 5.75 2.926 5.56 2.84" fill="#000000" fill-rule="nonzero" data-fill-palette-color="accent"></path><path class="" d="M4.762 3.463V3.403A1 1 0 0 1 4.602 3.383 0.3 0.3 0 0 1 4.496 3.337 0.12 0.12 0 0 1 4.444 3.258L4.576 3.247A0.12 0.12 0 0 0 4.629 3.317 0.3 0.3 0 0 0 4.762 3.353V3.163A1 1 0 0 1 4.597 3.134 0.24 0.24 0 0 1 4.5 3.09C4.478 3.071 4.467 3.05 4.467 3.026 4.467 2.984 4.5 2.95 4.565 2.923A0.6 0.6 0 0 1 4.762 2.891V2.862H4.839V2.891A0.6 0.6 0 0 1 5.019 2.92C5.078 2.943 5.112 2.972 5.124 3.011L4.988 3.02A0.1 0.1 0 0 0 4.939 2.966 0.3 0.3 0 0 0 4.84 2.94V3.113C4.905 3.121 4.949 3.127 4.969 3.131A0.5 0.5 0 0 1 5.07 3.16 0.2 0.2 0 0 1 5.13 3.201 0.1 0.1 0 0 1 5.148 3.255C5.15 3.296 5.12 3.33 5.063 3.358A0.55 0.55 0 0 1 4.839 3.403V3.463zM4.762 2.94A0.3 0.3 0 0 0 4.642 2.968C4.611 2.983 4.596 3.001 4.596 3.022S4.61 3.059 4.635 3.072A0.4 0.4 0 0 0 4.762 3.106zM4.839 3.353A0.3 0.3 0 0 0 4.965 3.323C4.998 3.305 5.015 3.284 5.015 3.259 5.015 3.237 5.003 3.219 4.98 3.206A0.5 0.5 0 0 0 4.839 3.171z" fill="#000000" fill-rule="nonzero" data-fill-palette-color="accent"></path><path class="" d="M5.905 3.296C5.927 3.326 5.944 3.358 5.955 3.391A0.3 0.3 0 0 1 5.974 3.493C5.973 3.66 5.833 3.808 5.605 3.912 5.39 4.01 5.095 4.071 4.77 4.071S4.15 4.01 3.935 3.912C3.708 3.808 3.567 3.66 3.567 3.492 3.567 3.459 3.573 3.425 3.585 3.393A0.4 0.4 0 0 1 3.635 3.295L3.722 3.36A0.3 0.3 0 0 0 3.685 3.427 0.2 0.2 0 0 0 3.674 3.493C3.674 3.615 3.79 3.729 3.979 3.815 4.18 3.907 4.46 3.964 4.77 3.964S5.36 3.907 5.561 3.815C5.75 3.73 5.867 3.615 5.867 3.493A0.2 0.2 0 0 0 5.855 3.427 0.3 0.3 0 0 0 5.82 3.359z" fill="#000000" fill-rule="nonzero" data-fill-palette-color="accent"></path><path class="" d="M5.905 3.627C5.927 3.657 5.944 3.689 5.955 3.722A0.3 0.3 0 0 1 5.974 3.823C5.973 3.991 5.833 4.14 5.605 4.243 5.39 4.34 5.095 4.4 4.77 4.4S4.15 4.34 3.935 4.242C3.708 4.14 3.567 3.991 3.567 3.823A0.3 0.3 0 0 1 3.585 3.722 0.4 0.4 0 0 1 3.635 3.627L3.722 3.689A0.3 0.3 0 0 0 3.685 3.757 0.2 0.2 0 0 0 3.674 3.823C3.674 3.945 3.79 4.06 3.979 4.146 4.18 4.237 4.46 4.294 4.77 4.294S5.36 4.237 5.561 4.146C5.75 4.06 5.867 3.946 5.867 3.823A0.2 0.2 0 0 0 5.855 3.757 0.3 0.3 0 0 0 5.82 3.689z" fill="#000000" fill-rule="nonzero" data-fill-palette-color="accent"></path><path class="" d="M5.905 3.957C5.927 3.987 5.944 4.019 5.955 4.052A0.3 0.3 0 0 1 5.974 4.153C5.973 4.321 5.833 4.47 5.605 4.573 5.39 4.67 5.095 4.73 4.77 4.73S4.15 4.671 3.935 4.573C3.708 4.469 3.567 4.32 3.567 4.153A0.3 0.3 0 0 1 3.585 4.052 0.4 0.4 0 0 1 3.635 3.957L3.722 4.019A0.3 0.3 0 0 0 3.685 4.087 0.2 0.2 0 0 0 3.674 4.153C3.674 4.275 3.79 4.39 3.979 4.476 4.18 4.568 4.46 4.625 4.77 4.625S5.36 4.568 5.561 4.475C5.75 4.39 5.867 4.276 5.867 4.154A0.2 0.2 0 0 0 5.855 4.087 0.3 0.3 0 0 0 5.82 4.02z" fill="#000000" fill-rule="nonzero" data-fill-palette-color="accent"></path><path class="" d="M5.905 4.287C5.927 4.317 5.944 4.35 5.955 4.382A0.3 0.3 0 0 1 5.974 4.484C5.973 4.65 5.833 4.799 5.605 4.903 5.39 5 5.095 5.062 4.77 5.062S4.15 5 3.935 4.902C3.708 4.8 3.567 4.653 3.567 4.485 3.567 4.449 3.573 4.415 3.585 4.382A0.4 0.4 0 0 1 3.635 4.287L3.722 4.35A0.3 0.3 0 0 0 3.685 4.418 0.2 0.2 0 0 0 3.674 4.484C3.674 4.606 3.79 4.72 3.979 4.806 4.18 4.898 4.46 4.955 4.77 4.955S5.36 4.898 5.561 4.806C5.75 4.72 5.867 4.606 5.867 4.484A0.2 0.2 0 0 0 5.855 4.418 0.3 0.3 0 0 0 5.82 4.35z" fill="#000000" fill-rule="nonzero" data-fill-palette-color="accent"></path><path class="" d="M5.905 4.618C5.927 4.648 5.944 4.68 5.955 4.713A0.3 0.3 0 0 1 5.974 4.814C5.973 4.982 5.833 5.129 5.605 5.234 5.39 5.33 5.095 5.391 4.77 5.391S4.15 5.332 3.935 5.233C3.708 5.13 3.567 4.982 3.567 4.814 3.567 4.78 3.573 4.746 3.585 4.713A0.4 0.4 0 0 1 3.635 4.618L3.722 4.68A0.3 0.3 0 0 0 3.685 4.748 0.2 0.2 0 0 0 3.674 4.814C3.674 4.936 3.79 5.05 3.979 5.137 4.18 5.228 4.46 5.285 4.77 5.285S5.36 5.228 5.561 5.137C5.75 5.05 5.867 4.937 5.867 4.814A0.2 0.2 0 0 0 5.855 4.748 0.3 0.3 0 0 0 5.82 4.68z" fill="#000000" fill-rule="nonzero" data-fill-palette-color="accent"></path><path class="" d="M5.905 4.948C5.927 4.978 5.944 5.01 5.955 5.043A0.3 0.3 0 0 1 5.974 5.144C5.973 5.312 5.833 5.46 5.605 5.564 5.39 5.662 5.095 5.722 4.77 5.722S4.15 5.662 3.935 5.564C3.708 5.46 3.567 5.312 3.567 5.144 3.567 5.11 3.573 5.076 3.585 5.043A0.4 0.4 0 0 1 3.635 4.948L3.722 5.01A0.3 0.3 0 0 0 3.685 5.078 0.2 0.2 0 0 0 3.674 5.144C3.674 5.266 3.79 5.381 3.979 5.467 4.18 5.559 4.46 5.615 4.77 5.615S5.36 5.56 5.561 5.467C5.75 5.38 5.867 5.267 5.867 5.144A0.2 0.2 0 0 0 5.855 5.078 0.3 0.3 0 0 0 5.82 5.01z" fill="#000000" fill-rule="nonzero" data-fill-palette-color="accent"></path></g></g></g><rect class="" width="6.82666" height="6.82666" fill="none"></rect></svg></g></svg></g></svg></g><defs></defs></svg><rect width="395.52" height="109.84816912346238" fill="none" stroke="none" visibility="hidden"></rect></g></svg></g></svg>